<?xml version="1.0" encoding="UTF-8" standalone="no"?>
<!-- Created with Inkscape (http://www.inkscape.org/) -->

<svg
   version="1.1"
   id="svg148"
   width="265"
   height="265"
   viewBox="0 0 265 265"
   sodipodi:docname="missing-image.svg"
   inkscape:version="1.3 (1:1.3+202307231459+0e150ed6c4)"
   inkscape:export-filename="../ac1285e0/company-x.png"
   inkscape:export-xdpi="96"
   inkscape:export-ydpi="96"
   xmlns:inkscape="http://www.inkscape.org/namespaces/inkscape"
   xmlns:sodipodi="http://sodipodi.sourceforge.net/DTD/sodipodi-0.dtd"
   xmlns="http://www.w3.org/2000/svg"
   xmlns:svg="http://www.w3.org/2000/svg">
  <defs
     id="defs152" />
  <sodipodi:namedview
     id="namedview150"
     pagecolor="#ffffff"
     bordercolor="#000000"
     borderopacity="0.25"
     inkscape:showpageshadow="2"
     inkscape:pageopacity="0.0"
     inkscape:pagecheckerboard="0"
     inkscape:deskcolor="#d1d1d1"
     showgrid="false"
     inkscape:zoom="1.7018868"
     inkscape:cx="134.55654"
     inkscape:cy="183.32594"
     inkscape:window-width="1920"
     inkscape:window-height="962"
     inkscape:window-x="0"
     inkscape:window-y="0"
     inkscape:window-maximized="1"
     inkscape:current-layer="g154" />
  <g
     inkscape:groupmode="layer"
     inkscape:label="Image"
     id="g154">
    <g
       id="g4"
       style="fill:#e6e6e6">
      <path
         style="color:#000000;fill:#e6e6e6;stroke-width:1.3;stroke-dasharray:none"
         d="M 214.7793,50.388672 46.730469,203.73047 49.425781,206.68555 217.47656,53.34375 Z"
         id="path3" />
      <path
         style="color:#000000;fill:#e6e6e6;-inkscape-stroke:none"
         d="m 132.57422,13.017578 c -64.421323,0 -116.720704,51.399819 -116.720704,114.792972 0,63.39315 52.299381,114.79297 116.720704,114.79297 64.42132,0 116.72265,-51.39982 116.72265,-114.79297 0,-63.393153 -52.30133,-114.792972 -116.72265,-114.792972 z m 0,4 c 62.29589,0 112.72265,49.598529 112.72265,110.792972 0,61.19444 -50.42676,110.79297 -112.72265,110.79297 -62.295896,0 -112.720704,-49.59853 -112.720704,-110.79297 0,-61.194443 50.424808,-110.792972 112.720704,-110.792972 z"
         id="path1" />
      <path
         style="color:#000000;fill:#e6e6e6;stroke-width:1.2;stroke-dasharray:none"
         d="m 132.57584,95.004167 c -18.36758,0 -33.333982,14.693253 -33.333982,32.806643 0,18.11339 14.966402,32.80664 33.333982,32.80664 18.36758,0 33.33203,-14.69325 33.33203,-32.80664 0,-18.11339 -14.96445,-32.806643 -33.33203,-32.806643 z m 0,4 c 16.24215,0 29.33203,12.891963 29.33203,28.806643 0,15.91468 -13.08988,28.80664 -29.33203,28.80664 -16.24215,0 -29.33398,-12.89196 -29.33398,-28.80664 0,-15.91468 13.09183,-28.806643 29.33398,-28.806643 z"
         id="ellipse1" />
      <g
         id="g2"
         transform="translate(3.0672908,4.5932326)"
         style="fill:#e6e6e6">
        <path
           style="color:#000000;fill:#e6e6e6;-inkscape-stroke:none"
           d="m 77.585937,74.431641 v 2 10.832031 H 52.697266 V 172.00195 H 206.31836 V 87.263672 H 181.42969 V 74.431641 Z m 4,4 h 95.843753 v 12.832031 h 24.88867 V 168.00195 H 56.697266 V 91.263672 h 24.888671 z"
           id="rect1" />
      </g>
    </g>
  </g>
</svg>
